<?xml version="1.0"?>
<svg xmlns="http://www.w3.org/2000/svg" id="Capa_1" enable-background="new 0 0 551.13 551.13" height="512px" viewBox="0 0 551.13 551.13" width="512px" class=""><g><path id="path-1_17_" d="m482.239 344.456c-37.995 0-68.891-30.897-68.891-68.891 0-37.995 30.897-68.891 68.891-68.891 37.995 0 68.891 30.897 68.891 68.891 0 37.995-30.897 68.891-68.891 68.891zm0-103.337c-18.989 0-34.446 15.457-34.446 34.446s15.457 34.446 34.446 34.446 34.446-15.457 34.446-34.446-15.457-34.446-34.446-34.446z" transform="translate(12 6)" data-original="#000000" class="active-path" data-old_color="#000000" fill="#FC814A"/><path id="path-1_16_" d="m275.565 344.456c-37.995 0-68.891-30.897-68.891-68.891 0-37.995 30.897-68.891 68.891-68.891 37.995 0 68.891 30.897 68.891 68.891 0 37.995-30.896 68.891-68.891 68.891zm0-103.337c-18.989 0-34.446 15.457-34.446 34.446s15.457 34.446 34.446 34.446 34.446-15.457 34.446-34.446-15.457-34.446-34.446-34.446z" transform="translate(6 6)" data-original="#000000" class="active-path" data-old_color="#000000" fill="#FC814A"/><path id="path-1_15_" d="m68.891 344.456c-37.994 0-68.891-30.896-68.891-68.891s30.897-68.891 68.891-68.891c37.995 0 68.891 30.897 68.891 68.891.001 37.995-30.896 68.891-68.891 68.891zm0-103.337c-18.989 0-34.446 15.457-34.446 34.446s15.457 34.446 34.446 34.446 34.446-15.457 34.446-34.446-15.457-34.446-34.446-34.446z" transform="translate(0 6)" data-original="#000000" class="active-path" data-old_color="#000000" fill="#FC814A"/></g> </svg>
