<?xml version="1.0"?>
<svg xmlns="http://www.w3.org/2000/svg" id="Layer_1" enable-background="new 0 0 512 512" height="512px" viewBox="0 0 512 512" width="512px"><g><g><path d="m488.5 252.001h-50v-22.401c0-27.481-19.178-50.611-45-57.026v-157.574c0-8.284-6.716-15-15-15h-355c-8.284 0-15 6.716-15 15v411c0 8.284 6.716 15 15 15h231v12.292c0 32.372 26.378 58.708 58.8 58.708h131.4c32.422 0 58.8-26.336 58.8-58.708v-186.291c0-8.284-6.716-15-15-15zm-80-22.401v22.401h-59v-22.401c0-15.88 13.233-28.8 29.5-28.8s29.5 12.919 29.5 28.8zm-370 181.4v-381h325v142.836c-25.315 6.758-44 29.639-44 56.763v22.401h-50c-8.284 0-15 6.716-15 15v144zm435 42.292c0 15.83-12.92 28.708-28.8 28.708h-131.4c-15.88 0-28.8-12.878-28.8-28.708v-171.291h35v39.499c0 8.284 6.716 15 15 15s15-6.716 15-15v-39.499h59v39.499c0 8.284 6.716 15 15 15s15-6.716 15-15v-39.499h35z" data-original="#000000" class="active-path" data-old_color="#000000" fill="#FC824A"/><path d="m113.381 64.779-17.048 18.313-1.141-1.419c-5.19-6.457-14.632-7.486-21.089-2.295-6.457 5.189-7.485 14.631-2.296 21.088l12 14.931c2.729 3.394 6.796 5.436 11.147 5.594.183.006.364.01.546.01 4.155 0 8.135-1.726 10.978-4.779l28.859-31c5.646-6.063 5.306-15.555-.758-21.2-6.06-5.645-15.553-5.306-21.198.757z" data-original="#000000" class="active-path" data-old_color="#000000" fill="#FC824A"/><path d="m184.5 105.5h133.999c8.284 0 15-6.716 15-15s-6.716-15-15-15h-133.999c-8.284 0-15 6.716-15 15s6.716 15 15 15z" data-original="#000000" class="active-path" data-old_color="#000000" fill="#FC824A"/><path d="m113.381 155.779-17.048 18.313-1.141-1.419c-5.19-6.457-14.632-7.485-21.089-2.295s-7.485 14.631-2.296 21.088l12 14.931c2.729 3.394 6.796 5.436 11.147 5.594.183.006.364.01.546.01 4.155 0 8.135-1.726 10.978-4.779l28.859-31c5.646-6.063 5.306-15.555-.758-21.2-6.06-5.645-15.553-5.306-21.198.757z" data-original="#000000" class="active-path" data-old_color="#000000" fill="#FC824A"/><path d="m184.5 196.5h83.998c8.284 0 15-6.716 15-15s-6.716-15-15-15h-83.998c-8.284 0-15 6.716-15 15s6.716 15 15 15z" data-original="#000000" class="active-path" data-old_color="#000000" fill="#FC824A"/><path d="m113.381 246.779-17.048 18.313-1.141-1.419c-5.19-6.458-14.632-7.485-21.089-2.295-6.457 5.189-7.485 14.631-2.296 21.088l12 14.931c2.729 3.394 6.796 5.436 11.147 5.594.183.006.364.01.546.01 4.155 0 8.135-1.726 10.978-4.779l28.859-31c5.646-6.063 5.306-15.555-.758-21.2-6.06-5.645-15.553-5.306-21.198.757z" data-original="#000000" class="active-path" data-old_color="#000000" fill="#FC824A"/><path d="m209.497 257.5h-24.997c-8.284 0-15 6.716-15 15s6.716 15 15 15h24.997c8.284 0 15-6.716 15-15s-6.716-15-15-15z" data-original="#000000" class="active-path" data-old_color="#000000" fill="#FC824A"/></g></g> </svg>
